<?xml version="1.0" standalone="no"?>
<!DOCTYPE svg PUBLIC "-//W3C//DTD SVG 20010904//EN"
 "http://www.w3.org/TR/2001/REC-SVG-20010904/DTD/svg10.dtd">
<svg version="1.0" xmlns="http://www.w3.org/2000/svg"
 width="659.000000pt" height="706.000000pt" viewBox="0 0 659.000000 706.000000"
 preserveAspectRatio="xMidYMid meet">

<g transform="translate(0.000000,706.000000) scale(0.100000,-0.100000)"
fill="#000000" stroke="none">
<path d="M3222 7016 l-37 -34 -3 -219 c-3 -136 0 -231 7 -253 32 -108 179
-120 233 -19 16 29 18 59 18 242 0 227 -6 256 -55 295 -20 16 -42 22 -76 22
-42 0 -55 -5 -87 -34z"/>
<path d="M2568 6795 c-36 -20 -58 -64 -58 -114 0 -51 46 -107 95 -117 48 -9
119 25 140 67 24 46 15 104 -23 142 -37 36 -110 47 -154 22z"/>
<path d="M3914 6791 c-59 -36 -71 -136 -23 -187 90 -96 258 -3 217 121 -25 76
-123 109 -194 66z"/>
<path d="M1914 6546 c-65 -29 -94 -109 -62 -169 15 -30 234 -283 266 -307 60
-47 164 -11 191 67 12 34 12 45 1 74 -13 30 -220 280 -268 322 -27 24 -89 31
-128 13z"/>
<path d="M4595 6544 c-33 -16 -248 -263 -279 -320 -25 -47 -15 -97 29 -141 28
-28 40 -33 82 -33 27 0 58 7 70 15 26 18 255 282 271 312 29 54 1 138 -57 168
-38 19 -77 19 -116 -1z"/>
<path d="M3106 6095 c-322 -53 -599 -195 -813 -418 -284 -296 -423 -633 -423
-1025 0 -296 78 -550 246 -804 50 -74 222 -255 326 -341 38 -32 65 -65 85
-104 27 -56 28 -65 33 -243 5 -173 7 -188 30 -229 35 -62 84 -99 149 -111 32
-6 264 -10 581 -10 588 0 597 1 663 65 57 55 63 81 70 275 7 229 15 252 115
345 274 255 380 389 466 593 89 211 122 395 113 622 -19 443 -235 848 -598
1119 -91 68 -270 162 -387 205 -181 65 -469 92 -656 61z m404 -291 c415 -78
766 -391 899 -803 41 -125 55 -219 54 -366 -1 -233 -59 -420 -190 -619 -48
-72 -203 -234 -304 -318 -114 -94 -189 -301 -189 -520 l0 -88 -170 0 -170 0 0
424 0 425 168 179 c149 161 170 179 192 173 14 -3 52 -6 85 -5 212 2 324 256
182 411 -53 58 -111 83 -188 83 -143 0 -249 -103 -249 -241 l0 -57 -95 -99
-94 -98 -1 280 0 280 36 29 c47 38 84 116 84 181 -1 206 -254 321 -410 187
-61 -52 -84 -103 -84 -187 0 -81 20 -129 78 -184 l36 -35 0 -270 0 -271 -90
90 -91 91 -3 62 c-12 179 -176 285 -349 226 -126 -43 -191 -213 -131 -340 48
-102 191 -169 286 -135 l33 12 173 -178 172 -178 0 -427 0 -428 -170 0 -170 0
0 103 c0 114 -17 208 -55 308 -39 102 -74 149 -181 241 -174 149 -263 261
-345 433 -121 254 -140 549 -53 825 92 292 317 559 587 696 81 41 225 91 316
109 94 19 302 18 401 -1z"/>
<path d="M1344 5960 c-11 -4 -33 -22 -47 -40 -21 -24 -27 -42 -27 -79 0 -61
14 -79 107 -136 43 -27 120 -75 172 -107 123 -76 156 -86 206 -62 82 39 99
136 34 199 -19 18 -108 79 -199 134 -166 102 -194 112 -246 91z"/>
<path d="M5034 5869 c-196 -117 -244 -160 -244 -216 0 -81 74 -144 144 -124
43 11 366 204 395 235 48 51 32 148 -31 186 -58 35 -82 28 -264 -81z"/>
<path d="M1000 5092 c-76 -38 -89 -135 -25 -199 l33 -33 241 0 c266 0 287 4
316 60 22 42 19 102 -6 134 -41 53 -59 56 -301 56 -192 0 -228 -2 -258 -18z"/>
<path d="M5135 5103 c-98 -25 -123 -151 -44 -218 l31 -25 237 0 c231 0 239 1
272 23 19 12 39 39 48 60 12 33 12 42 -3 82 -11 29 -29 51 -50 65 -31 19 -48
20 -252 19 -121 -1 -228 -4 -239 -6z"/>
<path d="M1252 4349 c-137 -45 -155 -54 -173 -82 -23 -38 -24 -78 -4 -117 17
-33 61 -60 97 -60 42 0 328 101 349 123 41 44 37 127 -6 165 -39 33 -91 28
-263 -29z"/>
<path d="M5123 4388 c-26 -13 -53 -65 -53 -103 0 -15 9 -42 20 -61 19 -30 35
-37 177 -83 85 -28 164 -51 175 -51 60 0 118 59 118 120 0 58 -46 91 -205 143
-141 47 -191 55 -232 35z"/>
<path d="M590 3763 c0 -20 52 -169 87 -252 201 -470 521 -754 911 -811 106
-16 367 -8 487 14 142 26 129 12 121 136 -15 260 -108 461 -284 613 -235 205
-521 282 -1119 303 -137 5 -203 4 -203 -3z m600 -349 c400 -70 603 -182 703
-387 20 -42 37 -83 37 -91 0 -10 -43 0 -164 35 -251 74 -343 115 -486 218 -85
61 -204 171 -242 223 l-20 29 44 -7 c23 -3 81 -12 128 -20z"/>
<path d="M5720 3763 c-543 -28 -850 -128 -1056 -344 -158 -167 -230 -335 -241
-565 l-6 -120 104 -19 c62 -11 174 -20 279 -22 199 -5 301 10 445 66 277 107
528 372 680 719 43 97 95 250 95 278 0 11 -21 14 -122 12 -68 -1 -148 -3 -178
-5z m-139 -352 c-36 -51 -143 -151 -230 -216 -95 -72 -228 -140 -346 -179
-114 -37 -319 -94 -324 -90 -10 9 82 174 124 221 54 61 160 130 265 171 113
45 363 103 518 121 9 1 6 -9 -7 -28z"/>
<path d="M3250 2620 c-482 -4 -589 -8 -606 -19 -80 -53 -69 -188 18 -241 32
-19 52 -20 646 -20 670 0 643 -2 695 59 80 95 0 236 -129 229 -21 -2 -302 -5
-624 -8z"/>
<path d="M270 2471 l0 -151 24 0 c45 0 400 -30 536 -45 804 -91 1347 -233
1713 -449 375 -220 598 -506 716 -915 25 -87 30 -96 51 -96 20 0 26 8 37 55
66 266 191 496 371 682 252 260 560 418 1066 548 344 88 917 174 1404 211
l162 13 0 149 0 150 -147 -7 c-510 -23 -1055 -99 -1448 -201 -470 -123 -838
-318 -1076 -573 -84 -90 -143 -171 -196 -268 l-38 -71 2 298 2 299 -134 0
-135 0 -2 -302 -3 -303 -26 56 c-175 372 -667 706 -1274 864 -399 104 -932
178 -1447 201 l-158 7 0 -152z"/>
<path d="M40 2116 c0 -6 62 -102 138 -213 75 -112 267 -395 426 -630 160 -236
313 -462 341 -503 50 -73 53 -75 96 -78 323 -18 717 -76 1034 -153 247 -59
570 -159 644 -199 13 -6 24 -10 27 -8 2 2 -7 47 -20 99 -52 205 -89 501 -78
636 l4 61 53 -18 c69 -24 81 -30 204 -112 56 -38 105 -67 108 -65 6 7 -35 123
-64 181 -120 238 -360 455 -663 600 -426 204 -1038 332 -1870 390 -316 22
-380 24 -380 12z"/>
<path d="M6470 2123 c-155 -7 -499 -35 -660 -54 -793 -92 -1357 -248 -1697
-471 -234 -153 -417 -369 -489 -578 -14 -39 -24 -76 -22 -81 2 -5 39 16 83 46
76 54 213 126 264 141 l24 6 -6 -158 c-5 -161 -25 -298 -73 -506 -33 -147 -34
-141 29 -114 147 66 501 164 812 225 243 49 415 74 685 101 113 12 208 24 211
28 3 4 117 174 253 377 136 204 290 433 343 510 220 322 345 509 350 522 3 9
-2 12 -18 11 -13 -1 -53 -3 -89 -5z"/>
<path d="M3655 694 c-206 -132 -329 -159 -495 -107 -30 9 -101 45 -158 80 -58
35 -107 61 -109 59 -7 -7 52 -304 88 -450 36 -144 55 -173 146 -218 64 -31 73
-33 178 -33 99 0 116 3 167 27 94 44 126 74 143 132 20 71 116 537 113 547 -2
4 -34 -12 -73 -37z"/>
</g>
</svg>
